<?xml version="1.0" encoding="UTF-8" standalone="no"?>
<svg
   height="16px"
   viewBox="0 0 16 16"
   width="16px"
   version="1.1"
   id="svg1"
   sodipodi:docname="emblem-ok-symbolic.svg"
   inkscape:version="1.4 (e7c3feb100, 2024-10-09)"
   xmlns:inkscape="http://www.inkscape.org/namespaces/inkscape"
   xmlns:sodipodi="http://sodipodi.sourceforge.net/DTD/sodipodi-0.dtd"
   xmlns="http://www.w3.org/2000/svg"
   xmlns:svg="http://www.w3.org/2000/svg">
  <defs
     id="defs1" />
  <sodipodi:namedview
     id="namedview1"
     pagecolor="#ffffff"
     bordercolor="#000000"
     borderopacity="0.25"
     inkscape:showpageshadow="2"
     inkscape:pageopacity="0.0"
     inkscape:pagecheckerboard="0"
     inkscape:deskcolor="#d1d1d1"
     inkscape:zoom="8"
     inkscape:cx="21.8125"
     inkscape:cy="13.625"
     inkscape:window-width="1920"
     inkscape:window-height="1011"
     inkscape:window-x="0"
     inkscape:window-y="0"
     inkscape:window-maximized="1"
     inkscape:current-layer="svg1" />
  <path
     d="m 6.991889,5.000002 c -0.5519397,-1e-6 -0.999375,-0.447716 -0.999375,-1 v -1 c 0,-0.552284 0.4474353,-1 0.999375,-1 h 1.998752 v -1 h -2.49844 v -1 h 2.49844 c 0.55194,6e-7 0.999375,0.4477156 0.999375,1 v 4 z m 1.998752,-2 H 6.991889 v 1 h 1.998752 z"
     id="path1-9"
     style="stroke-width:0.499845"
     sodipodi:nodetypes="sssscccccscsccccc" />
  <rect
     id="_Transparent_Rectangle_"
     data-name="&lt;Transparent Rectangle&gt;"
     class="cls-1"
     width="15.990016"
     height="16.000002"
     x="0"
     y="0"
     style="fill:none;stroke-width:0.499845" />
  <path
     d="m 12.991889,0 h -0.999375 v 5.000002 h 2.998127 c 0.55194,-1e-6 0.999375,-0.447716 0.999375,-1 v -1 c 0,-0.5522844 -0.447435,-1 -0.999375,-1 H 12.991889 V 0 m 0,3.000002 h 1.998752 v 1 h -1.998752 z"
     id="path1-9-1"
     style="stroke-width:0.499845"
     sodipodi:nodetypes="cccssssccccccc" />
  <path
     d="M 6,2.999375 H 3 v 2.49844 H 2 V 2.999375 C 2.0000006,2.447435 2.4477156,2 3,2 h 2 z"
     id="path2"
     style="stroke-width:0.499845"
     sodipodi:nodetypes="cccccscc" />
  <path
     d="m 8.990641,11.000002 c 0.5519397,10e-7 0.999375,0.447716 0.999375,1 v 1 c 0,0.552284 -0.4474353,1 -0.999375,1 H 6.991889 v 1 h 2.49844 v 1 h -2.49844 c -0.55194,-10e-7 -0.999375,-0.447716 -0.999375,-1 v -4 z m -1.998752,2 h 1.998752 v -1 H 6.991889 Z"
     id="path3"
     style="stroke-width:0.499845"
     sodipodi:nodetypes="sssscccccscsccccc" />
  <path
     d="m 14.990641,11 h 0.999375 v 5.000002 h -2.998127 c -0.55194,-10e-7 -0.999375,-0.447716 -0.999375,-1 v -3 c 0,-0.552284 0.447435,-1 0.999375,-1 h 1.998752 V 11 m 0,1.000002 h -1.998752 v 3 h 1.998752 z"
     id="path4"
     style="stroke-width:0.499845"
     sodipodi:nodetypes="cccssssccccccc" />
</svg>
