<?xml version="1.0" encoding="UTF-8" standalone="no"?>
<svg
   height="16px"
   viewBox="0 0 16 16"
   width="16px"
   version="1.1"
   id="svg1"
   sodipodi:docname="format-show-marks-symbolic.svg"
   inkscape:version="1.4 (e7c3feb100, 2024-10-09)"
   xmlns:inkscape="http://www.inkscape.org/namespaces/inkscape"
   xmlns:sodipodi="http://sodipodi.sourceforge.net/DTD/sodipodi-0.dtd"
   xmlns="http://www.w3.org/2000/svg"
   xmlns:svg="http://www.w3.org/2000/svg">
  <defs
     id="defs1" />
  <sodipodi:namedview
     id="namedview1"
     pagecolor="#ffffff"
     bordercolor="#000000"
     borderopacity="0.25"
     inkscape:showpageshadow="2"
     inkscape:pageopacity="0.0"
     inkscape:pagecheckerboard="0"
     inkscape:deskcolor="#d1d1d1"
     inkscape:zoom="1"
     inkscape:cx="1.5"
     inkscape:cy="9"
     inkscape:window-width="1292"
     inkscape:window-height="991"
     inkscape:window-x="26"
     inkscape:window-y="23"
     inkscape:window-maximized="0"
     inkscape:current-layer="svg1" />
  <path
     d="M 7.3447677,9.254787 C 5.4156387,9.297756 4.0391299,7.503906 4,5.582031 V 5.5625 C 4,3.605469 5.3882473,2 7.3447677,2 h 0.64654 C 8.5430461,2 8.993046,2.449219 8.993046,3 v 6 c 0,0.420581 -1.6482783,0.254787 -1.6482783,0.254787 z"
     fill="#2e3434"
     id="path1"
     sodipodi:nodetypes="ccsssssc"
     style="stroke-width:1.00087" />
  <path
     d="m 9.0034768,3 v 11 c 0,0.550781 -0.4499999,1 -1.0017383,1 C 7.45,15 7,14.550781 7,14 V 3"
     style="fill:#2e3434;stroke-width:1.00087"
     id="path1-7" />
  <path
     d="m 12.003,3 v 10.997382 c 0,0.550649 -0.449893,0.999762 -1.0015,0.999762 C 10.449892,14.997144 10,14.548031 10,13.997382 V 3"
     style="fill:#2e3434;stroke-width:1.00063"
     id="path1-6" />
  <path
     d="M 12,4 H 7.3447677 C 6.7930292,4 6.3430292,3.550781 6.3430292,3 c 0,-0.550781 0.45,-1 1.0017385,-1 H 12"
     style="fill:#2e3434;stroke-width:1.00087"
     id="path2"
     sodipodi:nodetypes="csssc" />
</svg>
