<?xml version="1.0" encoding="UTF-8" standalone="no"?>
<svg
   height="16px"
   viewBox="0 0 16 16"
   width="16px"
   version="1.1"
   id="svg2"
   sodipodi:docname="insert-table-symbolic.svg"
   inkscape:version="1.4 (e7c3feb100, 2024-10-09)"
   xmlns:inkscape="http://www.inkscape.org/namespaces/inkscape"
   xmlns:sodipodi="http://sodipodi.sourceforge.net/DTD/sodipodi-0.dtd"
   xmlns="http://www.w3.org/2000/svg"
   xmlns:svg="http://www.w3.org/2000/svg">
  <defs
     id="defs2" />
  <sodipodi:namedview
     id="namedview2"
     pagecolor="#ffffff"
     bordercolor="#000000"
     borderopacity="0.25"
     inkscape:showpageshadow="2"
     inkscape:pageopacity="0.0"
     inkscape:pagecheckerboard="0"
     inkscape:deskcolor="#d1d1d1"
     inkscape:zoom="1"
     inkscape:cx="12.5"
     inkscape:cy="8"
     inkscape:window-width="1292"
     inkscape:window-height="991"
     inkscape:window-x="26"
     inkscape:window-y="23"
     inkscape:window-maximized="0"
     inkscape:current-layer="g2" />
  <g
     fill="#2e3436"
     id="g2">
    <path
       d="M 4,0 C 4,0 2,0 2,1.993741 v 6.0124952 c 0,0 0,2.0015588 2,1.993741 h 8 c 2,0.00782 2,-1.993741 2,-1.993741 V 1.993741 C 14,0 12,0 12,0 Z m 0,1.993741 h 8 V 7.9984181 H 4 Z"
       id="path1"
       sodipodi:nodetypes="csccccsccccccc"
       style="stroke-width:1.00039" />
    <path
       d="m 5 12 v 1 h 0.007812 c -0.003906 0.265625 0.101563 0.519531 0.285157 0.707031 l 2 2 c 0.390625 0.390625 1.023437 0.390625 1.414062 0 l 2 -2 c 0.183594 -0.1875 0.289063 -0.441406 0.289063 -0.707031 h 0.003906 v -1 z m 0 0"
       id="path2" />
    <path
       style="fill:#2e3436;fill-opacity:1;stroke-width:1.016"
       d="M 2,6.0000022 V 4 h 12.000001 v 2.0000022 z"
       id="path34"
       sodipodi:nodetypes="ccccc" />
    <path
       style="fill:#2e3436;fill-opacity:1;stroke-width:1.016"
       d="M 9,10.000001 H 7 V 0 h 2 z"
       id="path35"
       sodipodi:nodetypes="ccccc" />
  </g>
</svg>
