<?xml version="1.0" encoding="UTF-8" standalone="no"?>
<svg
   height="16px"
   viewBox="0 0 16 16"
   width="16px"
   version="1.1"
   id="svg1"
   sodipodi:docname="insert-datetime-symbolic.svg"
   inkscape:version="1.4 (e7c3feb100, 2024-10-09)"
   xmlns:inkscape="http://www.inkscape.org/namespaces/inkscape"
   xmlns:sodipodi="http://sodipodi.sourceforge.net/DTD/sodipodi-0.dtd"
   xmlns="http://www.w3.org/2000/svg"
   xmlns:svg="http://www.w3.org/2000/svg">
  <defs
     id="defs1" />
  <sodipodi:namedview
     id="namedview1"
     pagecolor="#ffffff"
     bordercolor="#000000"
     borderopacity="0.25"
     inkscape:showpageshadow="2"
     inkscape:pageopacity="0.0"
     inkscape:pagecheckerboard="0"
     inkscape:deskcolor="#d1d1d1"
     inkscape:zoom="2.8284271"
     inkscape:cx="23.5113"
     inkscape:cy="13.788582"
     inkscape:window-width="1920"
     inkscape:window-height="1011"
     inkscape:window-x="0"
     inkscape:window-y="0"
     inkscape:window-maximized="1"
     inkscape:current-layer="svg1" />
  <path
     fill-rule="evenodd"
     clip-rule="evenodd"
     d="m 12.368574,10.435 c 0.242814,0 0.439641,0.196827 0.439641,0.439641 v 1.889622 l 1.077781,0.748139 c 0.199466,0.138442 0.248925,0.412383 0.110438,0.611849 -0.138443,0.199465 -0.412384,0.248924 -0.611849,0.110486 l -1.455653,-1.010428 v -2.349663 c 0,-0.242814 0.196828,-0.439641 0.439641,-0.439641 z"
     fill="#333333"
     id="path13"
     style="stroke-width:0.439641" />
  <path
     d="m 12.5,9.0000002 c -1.927074,0 -3.5000002,1.5729258 -3.5000002,3.4999998 0,1.927074 1.5729262,3.5 3.5000002,3.5 1.927074,0 3.5,-1.572926 3.5,-3.5 0,-1.927074 -1.572926,-3.4999998 -3.5,-3.4999998 z M 12.5,10 C 13.886634,10 15,11.113366 15,12.5 15,13.886634 13.886634,15 12.5,15 11.113366,15 10,13.886634 10,12.5 10,11.113366 11.113366,10 12.5,10 Z"
     id="path14"
     style="fill:#333333;fill-opacity:1" />
  <path
     id="rect15"
     style="fill:#333333;stroke-width:0.999983"
     d="M 4,1 C 2.346707,1 1,2.346649 1,4 v 8 c 0,1.653351 1.346707,3 3,3 h 6.056641 C 9.7623803,14.712364 9.5169612,14.375312 9.3378906,14 H 4 C 2.8833902,14 2,13.116648 2,12 V 4 C 2,2.883352 2.8833902,2 4,2 h 8 c 1.11661,0 2,0.883352 2,2 v 5.3378906 c 0.375312,0.1790706 0.712364,0.4244897 1,0.7187504 V 4 C 15,2.346649 13.653293,1 12,1 Z"
     sodipodi:nodetypes="ssssccssssssccsss" />
  <path
     d="M 4.2612069,0 V 1 C 2.6167334,1 13.905401,1 12.260927,1 V 0 H 11.260962 V 1 H 5.2611718 V 0 Z"
     style="fill:#333333;fill-opacity:1;stroke-width:0.999983"
     id="path1-4" />
  <path
     d="m 4.000001,7 v 2 h 2 V 7 Z M 7,7 V 9 H 9.000001 V 7 Z m 3,0 v 2 h 2 V 7 Z m -6,3 v 2 h 2 v -2 z m 3,0 v 2 h 2.000001 v -2 z"
     style="fill:#333333;fill-opacity:1;stroke-width:1"
     id="path1-9"
     sodipodi:nodetypes="ccccccccccccccccccccccccc" />
  <path
     id="rect16"
     style="fill:#333333;fill-opacity:1;stroke:#333333;stroke-width:1.03946;stroke-dasharray:none;stroke-opacity:1"
     d="m 4.0125224,1.5197382 c -1.3807446,0 -2.4923207,1.2084411 -2.4923207,2.709509 V 5.4802786 H 14.480271 V 4.2292472 c 0,-1.5010679 -1.111576,-2.709509 -2.492322,-2.709509 z"
     sodipodi:nodetypes="ssccsss" />
  <path
     d="M 3,5 V 6 H 6.2811372 V 5 Z"
     style="fill:#333333;fill-opacity:1;stroke-width:0.565951"
     id="path21"
     sodipodi:nodetypes="ccccc" />
  <path
     d="M 6.9998634,5 V 6 H 10.281 V 5 Z"
     style="fill:#333333;fill-opacity:1;stroke-width:0.565951"
     id="path23"
     sodipodi:nodetypes="ccccc" />
</svg>
