<?xml version="1.0" encoding="UTF-8" standalone="no"?>
<svg
   height="16px"
   viewBox="0 0 16 16"
   width="16px"
   version="1.1"
   id="svg3"
   sodipodi:docname="replace-all-symbolic.svg"
   inkscape:version="1.4 (e7c3feb100, 2024-10-09)"
   xmlns:inkscape="http://www.inkscape.org/namespaces/inkscape"
   xmlns:sodipodi="http://sodipodi.sourceforge.net/DTD/sodipodi-0.dtd"
   xmlns="http://www.w3.org/2000/svg"
   xmlns:svg="http://www.w3.org/2000/svg">
  <defs
     id="defs3" />
  <sodipodi:namedview
     id="namedview3"
     pagecolor="#ffffff"
     bordercolor="#000000"
     borderopacity="0.25"
     inkscape:showpageshadow="2"
     inkscape:pageopacity="0.0"
     inkscape:pagecheckerboard="0"
     inkscape:deskcolor="#d1d1d1"
     inkscape:zoom="2.8284271"
     inkscape:cx="35.885669"
     inkscape:cy="7.4246212"
     inkscape:window-width="1920"
     inkscape:window-height="1011"
     inkscape:window-x="0"
     inkscape:window-y="0"
     inkscape:window-maximized="1"
     inkscape:current-layer="g4" />
  <g
     fill="#2e3436"
     id="g3" />
  <g
     id="g4"
     transform="translate(1.3534768,1.5)">
    <path
       d="m 0.6465232,-1.5 c -1.109375,0 -2,0.890625 -2,2 v 8 c 0,1.109375 0.890625,2 2,2 v -10 h 9.9999998 c 0,-1.109375 -0.8906248,-2 -1.9999998,-2 z"
       id="path1"
       sodipodi:nodetypes="ssscccss" />
    <path
       d="m 3.6465232,1.5 c -1.109375,0 -2,0.890625 -2,2 v 8 c 0,1.109375 0.890625,2 2,2 h 7.9999998 c 1.109375,0 2,-0.890625 2,-2 v -8 c 0,-1.109375 -0.890625,-2 -2,-2 z m 0.00391,2 c 1.998705,0.00717 5.997398,0 7.9960938,0 l -4e-6,8 H 3.6504292 Z"
       id="path2"
       sodipodi:nodetypes="sssssssssccccc" />
    <path
       d="M 8.9394942,8.894531 7.6465252,10.1875 c -0.3906243,0.390625 -1.0234373,0.390625 -1.4140623,0 L 5.5254319,9.480469 4.2324629,8.1875 c -0.390625,-0.3906253 -0.390625,-1.023437 0,-1.414062 0.1875,-0.1875 0.441406,-0.292969 0.707031,-0.292969 0.265625,0 0.519531,0.105469 0.707031,0.292969 l 1.292969,1.292969 3.2929691,-3.292969 c 0.1875,-0.1875 0.441407,-0.292969 0.707032,-0.292969 0.265625,0 0.519531,0.105469 0.707031,0.292969 0.390626,0.390625 0.390626,1.023437 0,1.414062 l -1.292969,1.2929687"
       id="path2-3"
       sodipodi:nodetypes="cssccscscssscc" />
  </g>
</svg>
