<?xml version="1.0" encoding="UTF-8" standalone="no"?>
<svg
   height="16px"
   viewBox="0 0 16 16"
   width="16px"
   version="1.1"
   id="svg1"
   sodipodi:docname="replace-all-symbolicx.svg"
   inkscape:version="1.4 (e7c3feb100, 2024-10-09)"
   xmlns:inkscape="http://www.inkscape.org/namespaces/inkscape"
   xmlns:sodipodi="http://sodipodi.sourceforge.net/DTD/sodipodi-0.dtd"
   xmlns="http://www.w3.org/2000/svg"
   xmlns:svg="http://www.w3.org/2000/svg">
  <defs
     id="defs1" />
  <sodipodi:namedview
     id="namedview1"
     pagecolor="#ffffff"
     bordercolor="#000000"
     borderopacity="0.25"
     inkscape:showpageshadow="2"
     inkscape:pageopacity="0.0"
     inkscape:pagecheckerboard="0"
     inkscape:deskcolor="#d1d1d1"
     inkscape:zoom="8"
     inkscape:cx="10.0625"
     inkscape:cy="3"
     inkscape:window-width="1920"
     inkscape:window-height="1011"
     inkscape:window-x="0"
     inkscape:window-y="0"
     inkscape:window-maximized="1"
     inkscape:current-layer="svg1" />
  <path
     d="M 3,1 C 2.589844,1 2.222656,1.25 2.070312,1.628906 l -1.9999995,5 C 0.0234375,6.746094 0,6.871094 0,7 v 7 h 2 v -3 h 4.003906 v 3 h 2 L 8,7 C 7.996094,6.871094 7.972656,6.746094 7.925781,6.628906 l -2,-5 C 5.773438,1.25 5.40625,1 5,1 Z M 3.675781,3 H 4.320312 L 6,7.191406 V 9 H 2 V 7.191406 Z"
     fill="#222222"
     id="path1"
     sodipodi:nodetypes="sccscccccccccssccccccc" />
  <path
     d="m 11,14.011718 c 0,0 -1,-0.449219 -1,-0.999999 v -11 c 0,-0.550781 0.449219,-1 1,-1 0.550781,0 1,0.449219 1,1 V 7 13.991995 Z"
     fill="#2e3434"
     id="path2"
     sodipodi:nodetypes="cssssccc"
     style="fill:#222222;fill-opacity:1" />
  <path
     d="m 15,14.011718 c 0,0 -1,-0.449219 -1,-0.999999 v -11 c 0,-0.550781 0.449219,-1 1,-1 0.550781,0 1,0.449219 1,1 V 7 13.991995 Z"
     fill="#2e3434"
     id="path3"
     sodipodi:nodetypes="cssssccc"
     style="fill:#222222;fill-opacity:1" />
</svg>
