<?xml version="1.0" encoding="UTF-8" standalone="no"?>
<svg
   height="16px"
   viewBox="0 0 16 16"
   width="16px"
   version="1.1"
   id="svg2"
   sodipodi:docname="replace-all-symbolic.svg"
   inkscape:version="1.4 (e7c3feb100, 2024-10-09)"
   xml:space="preserve"
   xmlns:inkscape="http://www.inkscape.org/namespaces/inkscape"
   xmlns:sodipodi="http://sodipodi.sourceforge.net/DTD/sodipodi-0.dtd"
   xmlns="http://www.w3.org/2000/svg"
   xmlns:svg="http://www.w3.org/2000/svg"><defs
     id="defs2" /><sodipodi:namedview
     id="namedview2"
     pagecolor="#ffffff"
     bordercolor="#000000"
     borderopacity="0.25"
     inkscape:showpageshadow="2"
     inkscape:pageopacity="0.0"
     inkscape:pagecheckerboard="0"
     inkscape:deskcolor="#d1d1d1"
     inkscape:zoom="1"
     inkscape:cx="9.5"
     inkscape:cy="-6"
     inkscape:window-width="1292"
     inkscape:window-height="991"
     inkscape:window-x="26"
     inkscape:window-y="23"
     inkscape:window-maximized="0"
     inkscape:current-layer="g2" /><g
     fill="#222222"
     id="g2"><path
       d="M 3,0 C 1.355469,0 0,1.355469 0,3 v 10 c 0,1.644531 1.355469,3 3,3 h 10 c 1.644531,0 3,-1.355469 3,-3 V 3 C 16,1.355469 14.644531,0 13,0 Z m 0,2 h 10 c 0.570313,0 1,0.429688 1,1 v 10 c 0,0.570312 -0.429687,1 -1,1 H 3 C 2.429688,14 2,13.570312 2,13 V 3 C 2,2.429688 2.429688,2 3,2 Z"
       id="path1"
       sodipodi:nodetypes="ssssssssssssssssss" /><path
       d="m 7.2534733,4 c -0.01563,1.1875 0,3 0,3 v 5 h 1.5 V 4 Z"
       id="path2"
       sodipodi:nodetypes="cccccc"
       style="fill:#000000" /><path
       d="m 4.1608983,6.6495191 c 1.0205902,0.6072859 2.5980762,1.5 2.5980762,1.5 l 4.3301275,2.4999999 0.75,-1.299038 -6.9282037,-4 z"
       id="path12"
       sodipodi:nodetypes="cccccc"
       style="fill:#000000" /><path
       d="m 11.839102,6.6495191 c -1.02059,0.6072859 -2.5980765,1.5 -2.5980765,1.5 l -4.3301272,2.4999999 -0.75,-1.299038 6.9282037,-4 z"
       id="path13"
       sodipodi:nodetypes="cccccc"
       style="fill:#000000" /></g></svg>
