<?xml version="1.0" encoding="UTF-8" standalone="no"?>
<svg
   height="16px"
   viewBox="0 0 16 16"
   width="16px"
   version="1.1"
   id="svg2"
   sodipodi:docname="table-align-horizontal-centre-symbolic.svg"
   inkscape:version="1.4 (e7c3feb100, 2024-10-09)"
   xmlns:inkscape="http://www.inkscape.org/namespaces/inkscape"
   xmlns:sodipodi="http://sodipodi.sourceforge.net/DTD/sodipodi-0.dtd"
   xmlns="http://www.w3.org/2000/svg"
   xmlns:svg="http://www.w3.org/2000/svg">
  <defs
     id="defs2" />
  <sodipodi:namedview
     id="namedview2"
     pagecolor="#ffffff"
     bordercolor="#000000"
     borderopacity="0.25"
     inkscape:showpageshadow="2"
     inkscape:pageopacity="0.0"
     inkscape:pagecheckerboard="0"
     inkscape:deskcolor="#d1d1d1"
     inkscape:zoom="16"
     inkscape:cx="7.15625"
     inkscape:cy="9.6875"
     inkscape:window-width="1920"
     inkscape:window-height="1011"
     inkscape:window-x="0"
     inkscape:window-y="0"
     inkscape:window-maximized="1"
     inkscape:current-layer="g2" />
  <g
     fill="#222222"
     id="g2">
    <path
       d="M 9,1 V 15 H 7 V 1 Z"
       id="path2"
       sodipodi:nodetypes="ccccc" />
    <path
       d="m 13.277156,4.0001089 c 0.286642,-0.00391 0.569005,0.097648 0.778639,0.2812258 0.4321,0.3866858 0.440655,1.0194434 0.0214,1.4178472 l -1.390422,1.3006693 h 2.218004 c 0.60323,0 1.095227,0.4491804 1.095227,0.999914 0,0.5507337 -0.491997,0.9999145 -1.095227,0.9999145 h -2.218009 l 1.390423,1.3006693 c 0.419265,0.398403 0.41071,1.031161 -0.0214,1.417847 -0.436381,0.382779 -1.129453,0.374968 -1.548719,-0.01953 L 9.3112417,8.6989252 c -0.4149889,-0.3905915 -0.4149889,-1.0077265 0,-1.3944112 L 12.507076,4.3047717 c 0.201078,-0.1913915 0.479162,-0.3007571 0.770081,-0.3007571 z"
       fill-rule="evenodd"
       id="path6"
       sodipodi:nodetypes="ccccsssccccccccc"
       style="stroke-width:1.04649" />
    <path
       d="M 2.6601619,4.0001089 C 2.3693197,3.9961993 2.0828192,4.0977565 1.8701131,4.2813347 1.43168,4.6680206 1.4229987,5.3007783 1.8484096,5.6991821 L 3.2592099,6.9998514 H 1.1112768 C 0.49920672,6.9998514 0,7.4490319 0,7.9997656 0,8.5504993 0.49920672,8.9996802 1.1112768,8.9996802 H 3.259209 L 1.8484088,10.300348 c -0.4254101,0.398404 -0.4167288,1.031161 0.021703,1.417848 0.442775,0.382779 1.1460042,0.374967 1.5714153,-0.01953 l 3.24267,-2.9997424 c 0.4210705,-0.3905915 0.4210705,-1.0077265 0,-1.3944113 L 3.4415272,4.3047717 C 3.2375035,4.1133801 2.9553437,4.0040146 2.6601609,4.0040146 Z"
       fill-rule="evenodd"
       id="path7"
       sodipodi:nodetypes="ccccsssccccccccc"
       style="stroke-width:1.05412" />
  </g>
</svg>
