<?xml version="1.0" encoding="UTF-8" standalone="no"?>
<svg
   height="16px"
   viewBox="0 0 16 16"
   width="16px"
   version="1.1"
   id="svg2"
   sodipodi:docname="table-delete-column.svg"
   inkscape:version="1.4 (e7c3feb100, 2024-10-09)"
   xmlns:inkscape="http://www.inkscape.org/namespaces/inkscape"
   xmlns:sodipodi="http://sodipodi.sourceforge.net/DTD/sodipodi-0.dtd"
   xmlns="http://www.w3.org/2000/svg"
   xmlns:svg="http://www.w3.org/2000/svg">
  <defs
     id="defs2" />
  <sodipodi:namedview
     id="namedview2"
     pagecolor="#ffffff"
     bordercolor="#000000"
     borderopacity="0.25"
     inkscape:showpageshadow="2"
     inkscape:pageopacity="0.0"
     inkscape:pagecheckerboard="0"
     inkscape:deskcolor="#d1d1d1"
     inkscape:zoom="45.254834"
     inkscape:cx="9.6453785"
     inkscape:cy="8.1759222"
     inkscape:window-width="1920"
     inkscape:window-height="1011"
     inkscape:window-x="0"
     inkscape:window-y="0"
     inkscape:window-maximized="1"
     inkscape:current-layer="g2" />
  <g
     fill="#2e3436"
     id="g2">
    <rect
       style="fill:none;fill-opacity:1;stroke:#292929;stroke-width:2;stroke-dasharray:none;stroke-opacity:1"
       id="rect4"
       width="14"
       height="12"
       x="1"
       y="2"
       rx="2" />
    <g
       id="g11">
      <g
         id="g18"
         transform="translate(0,-0.500001)">
        <path
           d="m 0.5,5.0441942 c -0.277344,0 -0.5,0.222656 -0.5,0.5 v 1 c 0,0.277344 0.222656,0.5 0.5,0.5 h 4.000001 c 0.277344,0 0.5,-0.222656 0.5,-0.5 v -1 c 0,-0.277344 -0.222656,-0.5 -0.5,-0.5 z"
           fill-opacity="0.34902"
           id="path3"
           sodipodi:nodetypes="sssssssss"
           style="fill:#1a1a1a;fill-opacity:1" />
        <path
           d="m 0.5,9.0220974 c -0.277344,0 -0.5,0.222656 -0.5,0.5 v 0.9999996 c 0,0.277344 0.222656,0.5 0.5,0.5 h 4.000001 c 0.277344,0 0.5,-0.222656 0.5,-0.5 V 9.5220974 c 0,-0.277344 -0.222656,-0.5 -0.5,-0.5 z"
           fill-opacity="0.34902"
           id="path5"
           sodipodi:nodetypes="sssssssss"
           style="fill:#1a1a1a;fill-opacity:1" />
        <path
           d="m 5.3591845,2.5 c 0,-0.277344 -0.222656,-0.5 -0.5,-0.5 h -1 c -0.277344,0 -0.5,0.222656 -0.5,0.5 v 12.000002 c 0,0.277344 0.222656,0.5 0.5,0.5 h 1 c 0.277344,0 0.5,-0.222656 0.5,-0.5 z"
           fill-opacity="0.34902"
           id="path7"
           sodipodi:nodetypes="sssssssss"
           style="fill:#1a1a1a;fill-opacity:1" />
      </g>
      <g
         id="g17"
         transform="matrix(-1,0,0,1,16,-0.500001)">
        <path
           d="m 0.5,5.0441942 c -0.277344,0 -0.5,0.222656 -0.5,0.5 v 1 c 0,0.277344 0.222656,0.5 0.5,0.5 h 4.000001 c 0.277344,0 0.5,-0.222656 0.5,-0.5 v -1 c 0,-0.277344 -0.222656,-0.5 -0.5,-0.5 z"
           fill-opacity="0.34902"
           id="path15"
           sodipodi:nodetypes="sssssssss"
           style="fill:#1a1a1a;fill-opacity:1" />
        <path
           d="m 0.5,9.0220974 c -0.277344,0 -0.5,0.222656 -0.5,0.5 v 0.9999996 c 0,0.277344 0.222656,0.5 0.5,0.5 h 4.000001 c 0.277344,0 0.5,-0.222656 0.5,-0.5 V 9.5220974 c 0,-0.277344 -0.222656,-0.5 -0.5,-0.5 z"
           fill-opacity="0.34902"
           id="path16"
           sodipodi:nodetypes="sssssssss"
           style="fill:#1a1a1a;fill-opacity:1" />
        <path
           d="m 5.3591845,2.5 c 0,-0.277344 -0.222656,-0.5 -0.5,-0.5 h -1 c -0.277344,0 -0.5,0.222656 -0.5,0.5 v 12.000002 c 0,0.277344 0.222656,0.5 0.5,0.5 h 1 c 0.277344,0 0.5,-0.222656 0.5,-0.5 z"
           fill-opacity="0.34902"
           id="path17"
           sodipodi:nodetypes="sssssssss"
           style="fill:#1a1a1a;fill-opacity:1" />
      </g>
    </g>
    <path
       d="m 6.2739192,7.1562501 c -0.954122,0 -0.954122,1.6874998 0,1.6874998 h 3.4521616 c 0.9541222,0 0.9541222,-1.6874998 0,-1.6874998 z"
       fill-opacity="0.34902"
       id="path11"
       sodipodi:nodetypes="sssss"
       style="fill:#1a1a1a;fill-opacity:1;stroke-width:1.14525" />
    <path
       d="m 7.1562501,9.5853014 c 0,0.8763036 1.6874998,0.8763036 1.6874998,0 V 6.4146986 c 0,-0.8763036 -1.6874998,-0.8763036 -1.6874998,0 z"
       fill-opacity="0.34902"
       id="path18"
       sodipodi:nodetypes="sssss"
       style="fill:#1a1a1a;fill-opacity:1;stroke-width:1.09755" />
  </g>
</svg>
