<?xml version="1.0" encoding="UTF-8" standalone="no"?>
<svg
   height="16px"
   viewBox="0 0 16 16"
   width="16px"
   version="1.1"
   id="svg2"
   sodipodi:docname="table-insert-symbolic.svg"
   inkscape:version="1.4 (e7c3feb100, 2024-10-09)"
   xmlns:inkscape="http://www.inkscape.org/namespaces/inkscape"
   xmlns:sodipodi="http://sodipodi.sourceforge.net/DTD/sodipodi-0.dtd"
   xmlns="http://www.w3.org/2000/svg"
   xmlns:svg="http://www.w3.org/2000/svg">
  <defs
     id="defs2" />
  <sodipodi:namedview
     id="namedview2"
     pagecolor="#ffffff"
     bordercolor="#000000"
     borderopacity="0.25"
     inkscape:showpageshadow="2"
     inkscape:pageopacity="0.0"
     inkscape:pagecheckerboard="0"
     inkscape:deskcolor="#d1d1d1"
     inkscape:zoom="8"
     inkscape:cx="17.8125"
     inkscape:cy="-9.125"
     inkscape:window-width="1920"
     inkscape:window-height="1011"
     inkscape:window-x="0"
     inkscape:window-y="0"
     inkscape:window-maximized="1"
     inkscape:current-layer="g2" />
  <g
     fill="#2e3436"
     id="g2">
    <path
       d="m 0.883883,5.0441942 c -0.277344,0 -0.5,0.222656 -0.5,0.5 v 1 c 0,0.277344 0.222656,0.5 0.5,0.5 h 14.000001 c 0.277344,0 0.5,-0.222656 0.5,-0.5 v -1 c 0,-0.277344 -0.222656,-0.5 -0.5,-0.5 z"
       fill-opacity="0.34902"
       id="path3"
       sodipodi:nodetypes="sssssssss"
       style="fill:#1a1a1a;fill-opacity:1" />
    <rect
       style="fill:none;fill-opacity:1;stroke:#292929;stroke-width:2;stroke-dasharray:none;stroke-opacity:1"
       id="rect4"
       width="14"
       height="12"
       x="1"
       y="2"
       rx="2" />
    <path
       d="m 0.883883,9.0441942 c -0.277344,0 -0.5,0.222656 -0.5,0.5 v 0.9999998 c 0,0.277344 0.222656,0.5 0.5,0.5 h 14.000001 c 0.277344,0 0.5,-0.222656 0.5,-0.5 V 9.5441942 c 0,-0.277344 -0.222656,-0.5 -0.5,-0.5 z"
       fill-opacity="0.34902"
       id="path5"
       sodipodi:nodetypes="sssssssss"
       style="fill:#1a1a1a;fill-opacity:1" />
    <path
       d="M 7,1.5 C 7,1.222656 6.777344,1 6.5,1 h -1 C 5.222656,1 5,1.222656 5,1.5 v 12.000002 c 0,0.277344 0.222656,0.5 0.5,0.5 h 1 c 0.277344,0 0.5,-0.222656 0.5,-0.5 z"
       fill-opacity="0.34902"
       id="path7"
       sodipodi:nodetypes="sssssssss"
       style="fill:#1a1a1a;fill-opacity:1" />
    <path
       d="M 11.5,1.5 C 11.5,1.222656 11.277344,1 11,1 H 10 C 9.722656,1 9.5,1.222656 9.5,1.5 v 12.000002 c 0,0.277344 0.222656,0.5 0.5,0.5 h 1 c 0.277344,0 0.5,-0.222656 0.5,-0.5 z"
       fill-opacity="0.34902"
       id="path8"
       sodipodi:nodetypes="sssssssss"
       style="fill:#1a1a1a;fill-opacity:1" />
  </g>
</svg>
